<svg xmlns="http://www.w3.org/2000/svg" xmlns:xlink="http://www.w3.org/1999/xlink" width="1366" zoomAndPan="magnify" viewBox="0 0 1024.5 576" height="768" preserveAspectRatio="xMidYMid meet" version="1.0"><defs><g/><clipPath id="4b6496ff7a"><rect x="0" width="954" y="0" height="301"/></clipPath></defs><g transform="matrix(1, 0, 0, 1, 34, 136)"><g clip-path="url(#4b6496ff7a)"><g fill="#2d2d2d" fill-opacity="1"><g transform="translate(3.300362, 232.431096)"><g><path d="M 299.179688 -206.613281 L 299.179688 44.992188 L 191.25 44.992188 L 191.25 -216.808594 L 299.179688 -216.808594 Z M 278.789062 -206.613281 L 288.984375 -206.613281 L 288.984375 -196.414062 L 201.445312 -196.414062 L 201.445312 -206.613281 L 211.640625 -206.613281 L 211.640625 34.796875 L 201.445312 34.796875 L 201.445312 24.601562 L 288.984375 24.601562 L 288.984375 34.796875 L 278.789062 34.796875 Z M 201.855469 -206.613281 L 201.855469 44.992188 L -0.136719 44.992188 L -0.136719 -216.808594 L 106.160156 -216.808594 L 106.160156 -147.074219 L 95.964844 -147.074219 L 95.964844 -157.269531 L 105.753906 -157.269531 L 105.753906 -147.074219 L 95.558594 -147.074219 L 95.558594 -216.808594 L 201.855469 -216.808594 Z M 181.464844 -206.613281 L 191.660156 -206.613281 L 191.660156 -196.414062 L 105.753906 -196.414062 L 105.753906 -206.613281 L 115.949219 -206.613281 L 115.949219 -136.878906 L 85.769531 -136.878906 L 85.769531 -206.613281 L 95.964844 -206.613281 L 95.964844 -196.414062 L 10.058594 -196.414062 L 10.058594 -206.613281 L 20.253906 -206.613281 L 20.253906 34.796875 L 10.058594 34.796875 L 10.058594 24.601562 L 191.660156 24.601562 L 191.660156 34.796875 L 181.464844 34.796875 Z M 95.964844 -38.46875 L 105.753906 -38.46875 L 105.753906 -28.273438 L 95.558594 -28.273438 L 95.558594 -86.722656 L 105.753906 -86.722656 L 105.753906 -76.527344 L 95.964844 -76.527344 L 95.964844 -86.722656 L 106.160156 -86.722656 L 106.160156 -28.273438 L 95.964844 -28.273438 Z M 85.769531 -18.078125 L 85.769531 -96.917969 L 115.949219 -96.917969 L 115.949219 -18.078125 Z M 85.769531 -18.078125 "/></g></g></g><g fill="#2d2d2d" fill-opacity="1"><g transform="translate(319.725992, 232.431096)"><g><path d="M 299.179688 -206.613281 L 299.179688 44.992188 L 191.25 44.992188 L 191.25 -216.808594 L 299.179688 -216.808594 Z M 278.789062 -206.613281 L 288.984375 -206.613281 L 288.984375 -196.414062 L 201.445312 -196.414062 L 201.445312 -206.613281 L 211.640625 -206.613281 L 211.640625 34.796875 L 201.445312 34.796875 L 201.445312 24.601562 L 288.984375 24.601562 L 288.984375 34.796875 L 278.789062 34.796875 Z M 201.855469 -206.613281 L 201.855469 44.992188 L -0.136719 44.992188 L -0.136719 -216.808594 L 106.160156 -216.808594 L 106.160156 -147.074219 L 95.964844 -147.074219 L 95.964844 -157.269531 L 105.753906 -157.269531 L 105.753906 -147.074219 L 95.558594 -147.074219 L 95.558594 -216.808594 L 201.855469 -216.808594 Z M 181.464844 -206.613281 L 191.660156 -206.613281 L 191.660156 -196.414062 L 105.753906 -196.414062 L 105.753906 -206.613281 L 115.949219 -206.613281 L 115.949219 -136.878906 L 85.769531 -136.878906 L 85.769531 -206.613281 L 95.964844 -206.613281 L 95.964844 -196.414062 L 10.058594 -196.414062 L 10.058594 -206.613281 L 20.253906 -206.613281 L 20.253906 34.796875 L 10.058594 34.796875 L 10.058594 24.601562 L 191.660156 24.601562 L 191.660156 34.796875 L 181.464844 34.796875 Z M 95.964844 -38.46875 L 105.753906 -38.46875 L 105.753906 -28.273438 L 95.558594 -28.273438 L 95.558594 -86.722656 L 105.753906 -86.722656 L 105.753906 -76.527344 L 95.964844 -76.527344 L 95.964844 -86.722656 L 106.160156 -86.722656 L 106.160156 -28.273438 L 95.964844 -28.273438 Z M 85.769531 -18.078125 L 85.769531 -96.917969 L 115.949219 -96.917969 L 115.949219 -18.078125 Z M 85.769531 -18.078125 "/></g></g></g><g fill="#2d2d2d" fill-opacity="1"><g transform="translate(636.151622, 232.431096)"><g><path d="M 192.339844 -206.613281 L 192.339844 -61.847656 L -6.660156 -61.847656 L -6.660156 -216.808594 L 192.339844 -216.808594 Z M 171.949219 -206.613281 L 182.144531 -206.613281 L 182.144531 -196.414062 L 3.535156 -196.414062 L 3.535156 -206.613281 L 13.730469 -206.613281 L 13.730469 -72.042969 L 3.535156 -72.042969 L 3.535156 -82.238281 L 182.144531 -82.238281 L 182.144531 -72.042969 L 171.949219 -72.042969 Z M 285.042969 -65.515625 L 285.042969 44.992188 L 166.785156 44.992188 L 166.785156 -2.71875 L 176.980469 -2.71875 L 176.980469 7.476562 L -6.660156 7.476562 L -6.660156 -75.714844 L 285.042969 -75.714844 Z M 264.652344 -65.515625 L 274.847656 -65.515625 L 274.847656 -55.320312 L 3.535156 -55.320312 L 3.535156 -65.515625 L 13.730469 -65.515625 L 13.730469 -2.71875 L 3.535156 -2.71875 L 3.535156 -12.914062 L 187.175781 -12.914062 L 187.175781 34.796875 L 176.980469 34.796875 L 176.980469 24.601562 L 274.847656 24.601562 L 274.847656 34.796875 L 264.652344 34.796875 Z M 285.042969 -98.414062 L 285.042969 -61.847656 L 181.734375 -61.847656 L 181.734375 -216.808594 L 285.042969 -216.808594 L 285.042969 -177.792969 L 274.847656 -177.792969 L 274.847656 -187.988281 L 305.703125 -187.988281 L 305.703125 -88.21875 L 274.847656 -88.21875 L 274.847656 -98.414062 Z M 264.652344 -108.609375 L 295.507812 -108.609375 L 295.507812 -98.414062 L 285.3125 -98.414062 L 285.3125 -177.792969 L 295.507812 -177.792969 L 295.507812 -167.597656 L 264.652344 -167.597656 L 264.652344 -206.613281 L 274.847656 -206.613281 L 274.847656 -196.414062 L 191.929688 -196.414062 L 191.929688 -206.613281 L 202.125 -206.613281 L 202.125 -72.042969 L 191.929688 -72.042969 L 191.929688 -82.238281 L 274.847656 -82.238281 L 274.847656 -72.042969 L 264.652344 -72.042969 Z M 87.808594 -130.628906 L 97.867188 -130.628906 L 97.867188 -120.433594 L 87.671875 -120.433594 L 87.671875 -158.492188 L 97.867188 -158.492188 L 97.867188 -148.296875 L 87.808594 -148.296875 L 87.808594 -158.492188 L 98.003906 -158.492188 L 98.003906 -120.433594 L 87.808594 -120.433594 Z M 77.613281 -110.238281 L 77.613281 -168.6875 L 108.0625 -168.6875 L 108.0625 -110.238281 Z M 77.613281 -110.238281 "/></g></g></g><g fill="#ffffff" fill-opacity="1"><g transform="translate(3.300362, 232.431096)"><g><path d="M 288.984375 -206.609375 L 288.984375 34.796875 L 201.453125 34.796875 L 201.453125 -206.609375 Z M 191.65625 -206.609375 L 191.65625 34.796875 L 10.0625 34.796875 L 10.0625 -206.609375 L 95.96875 -206.609375 L 95.96875 -147.078125 L 105.75 -147.078125 L 105.75 -206.609375 Z M 95.96875 -28.265625 L 105.75 -28.265625 L 105.75 -86.71875 L 95.96875 -86.71875 Z M 95.96875 -28.265625 "/></g></g></g><g fill="#ffffff" fill-opacity="1"><g transform="translate(319.725992, 232.431096)"><g><path d="M 288.984375 -206.609375 L 288.984375 34.796875 L 201.453125 34.796875 L 201.453125 -206.609375 Z M 191.65625 -206.609375 L 191.65625 34.796875 L 10.0625 34.796875 L 10.0625 -206.609375 L 95.96875 -206.609375 L 95.96875 -147.078125 L 105.75 -147.078125 L 105.75 -206.609375 Z M 95.96875 -28.265625 L 105.75 -28.265625 L 105.75 -86.71875 L 95.96875 -86.71875 Z M 95.96875 -28.265625 "/></g></g></g><g fill="#ffffff" fill-opacity="1"><g transform="translate(636.151622, 232.431096)"><g><path d="M 182.140625 -206.609375 L 182.140625 -72.046875 L 3.53125 -72.046875 L 3.53125 -206.609375 Z M 274.84375 -65.515625 L 274.84375 34.796875 L 176.984375 34.796875 L 176.984375 -2.71875 L 3.53125 -2.71875 L 3.53125 -65.515625 Z M 274.84375 -98.40625 L 274.84375 -72.046875 L 191.9375 -72.046875 L 191.9375 -206.609375 L 274.84375 -206.609375 L 274.84375 -177.796875 L 295.515625 -177.796875 L 295.515625 -98.40625 Z M 87.8125 -120.4375 L 97.875 -120.4375 L 97.875 -158.5 L 87.8125 -158.5 Z M 87.8125 -120.4375 "/></g></g></g></g></g></svg>